<svg width="40" height="19" viewBox="0 0 40 19" fill="none" xmlns="http://www.w3.org/2000/svg">
<path d="M10.104 18.288C8.776 18.288 7.552 18.08 6.432 17.664C5.328 17.232 4.36 16.624 3.528 15.84C2.712 15.056 2.072 14.136 1.608 13.08C1.16 12.024 0.936 10.864 0.936 9.6C0.936 8.336 1.16 7.176 1.608 6.12C2.072 5.064 2.72 4.144 3.552 3.36C4.384 2.576 5.36 1.976 6.48 1.56C7.6 1.128 8.832 0.912 10.176 0.912C11.664 0.912 13 1.16 14.184 1.656C15.384 2.152 16.392 2.872 17.208 3.816L14.712 6.12C14.104 5.48 13.44 5.008 12.72 4.704C12 4.384 11.216 4.224 10.368 4.224C9.552 4.224 8.808 4.352 8.136 4.608C7.464 4.864 6.88 5.232 6.384 5.712C5.904 6.192 5.528 6.76 5.256 7.416C5 8.072 4.872 8.8 4.872 9.6C4.872 10.384 5 11.104 5.256 11.76C5.528 12.416 5.904 12.992 6.384 13.488C6.88 13.968 7.456 14.336 8.112 14.592C8.784 14.848 9.52 14.976 10.32 14.976C11.088 14.976 11.832 14.856 12.552 14.616C13.288 14.36 14 13.936 14.688 13.344L16.896 16.152C15.984 16.84 14.92 17.368 13.704 17.736C12.504 18.104 11.304 18.288 10.104 18.288ZM13.344 15.648V9.336H16.896V16.152L13.344 15.648ZM20.6076 18V1.2H23.8236L30.9756 13.056H29.2716L36.3036 1.2H39.4956L39.5436 18H35.8956L35.8716 6.792H36.5436L30.9276 16.224H29.1756L23.4396 6.792H24.2556V18H20.6076Z" fill="#FCEFCF"/>
</svg>
