<svg width="125" height="52" viewBox="0 0 125 52" fill="none" xmlns="http://www.w3.org/2000/svg">
<path d="M9.7916 4.87483C9.78745 3.90647 9.49623 2.9611 8.95476 2.15827C8.41329 1.35544 7.6459 0.731219 6.74964 0.364548C5.85338 -0.00212395 4.86851 -0.0947723 3.9196 0.0983196C2.97068 0.291411 2.10035 0.761568 1.41865 1.44933C0.736958 2.1371 0.274528 3.01157 0.0898554 3.96216C-0.0948175 4.91275 0.00655505 5.89676 0.381157 6.78973C0.755758 7.6827 1.38677 8.44453 2.19436 8.97886C3.00196 9.51319 3.94988 9.79603 4.91823 9.7916C5.56126 9.78945 6.19755 9.66048 6.79067 9.4121C7.3838 9.16371 7.9221 8.80077 8.37477 8.34407C8.82744 7.88737 9.18559 7.34586 9.42871 6.75056C9.67183 6.15526 9.79515 5.51785 9.7916 4.87483Z" fill="#F5AC00"/>
<path d="M29.1671 36.3321C27.3715 36.3321 25.6553 35.4987 24.4254 33.962V22.7234C25.6553 21.1868 27.3671 20.3533 29.1671 20.3533C32.1088 20.3533 33.8205 22.7668 33.8205 28.2552C33.8205 33.7435 32.1088 36.3351 29.1671 36.3351V36.3321ZM91.2477 20.0451C93.8378 20.0451 95.1545 22.1534 95.1545 25.7519H87.1644C87.3783 22.2895 88.7833 20.0451 91.2477 20.0451ZM122.723 33.6986C120.793 35.6303 119.388 36.5521 117.187 36.5521C113.279 36.5521 111.04 32.9086 111.04 28.342C111.04 23.7753 112.537 19.9134 116.577 19.9134C119.957 19.9134 121.45 21.6267 121.8 25.9719H123.909V19.7818C121.932 18.2855 118.821 17.1917 116.007 17.1917C109.377 17.1917 104.505 21.6267 104.505 28.1669C104.505 35.3221 108.807 39.5386 116.138 39.5386C119.474 39.5386 122.284 38.0423 124.435 35.2802L122.723 33.6986ZM92.8278 36.5521C89.2277 36.5521 87.0776 33.6104 87.121 28.1729H101.388C101.388 21.3678 97.8328 17.1977 91.6427 17.1977C85.321 17.1977 80.6675 21.5878 80.6675 28.2612C80.6675 34.978 85.2342 39.5865 91.6861 39.5865C96.1645 39.5865 98.7979 38.0902 101.433 34.758L99.7211 33.1779C97.4378 35.7216 95.5061 36.558 92.8278 36.558V36.5521ZM69.8629 17.1917C67.2728 17.1917 65.1212 18.2391 62.8827 20.4401C61.6977 18.29 59.5909 17.1917 56.8677 17.1917C54.3659 17.1917 52.1709 18.2017 50.3709 19.9134V17.5433H41.5024V20.0017H44.4007V39.1421H50.6342V22.683C51.8641 21.1868 53.3559 20.3563 55.0243 20.3563C56.9126 20.3563 57.8777 21.5414 57.8777 23.7798V39.1421H64.0244V25.526C64.0221 24.6734 63.9486 23.8226 63.8045 22.9823C65.1212 21.3573 66.8329 20.3488 68.4145 20.3488C70.3013 20.3488 71.2679 21.5339 71.2679 23.7723V39.1421H77.4131V24.5669C77.4131 19.9134 74.6031 17.1917 69.8629 17.1917ZM30.5287 17.1917C28.0703 17.1917 26.1386 18.07 24.4254 19.6501V11.7916H14.8118V14.2515H18.1485V36.6837H14.8118V39.1421H24.162V36.8154C25.9576 38.5271 27.9386 39.4937 30.5287 39.4937C36.6305 39.4937 40.4939 35.4538 40.4939 28.2986C40.4939 21.1434 36.6335 17.1917 30.5287 17.1917ZM10.8616 14.2515V11.7916H1.20312V39.1421H10.8616V36.6837H7.48001V14.2515H10.8616Z" fill="#002555"/>
</svg>
