<?xml version="1.0" encoding="utf-8"?>
<!-- Generator: Adobe Illustrator 25.2.1, SVG Export Plug-In . SVG Version: 6.00 Build 0)  -->
<svg version="1.1" xmlns="http://www.w3.org/2000/svg" xmlns:xlink="http://www.w3.org/1999/xlink" x="0px" y="0px"
	 viewBox="0 0 1080 1080" style="enable-background:new 0 0 1080 1080;" xml:space="preserve">
<style type="text/css">
	.st0{fill:#2F484F;}
	.st1{fill:#FCEFCF;}
	.st2{fill:#1D3237;}
	.st3{fill:#D8D1AF;}
</style>
<g id="bg">
</g>
<g id="Logo">
	<g>
		<path class="st0" d="M-1906.8,1390.5l0.4,44.6l0.2,20.1l-79.9,47.1c-5.7-8-17-11.4-26.6-5.8l-74.5,43
			c-13.4,7.8-30.2-1.9-30.2-17.4V1489c0-7.2,3.8-13.8,10.1-17.4l124.8-72.1l45.4-26.2C-1923.6,1365.6-1906.9,1375.1-1906.8,1390.5z"
			/>
		<g>
			<path class="st0" d="M-2142.9,1117.1l-155.4,91.9l-12.8,7.3l-81.5,46.4l-46,26.2c-6.3,3.6-10.2,10.3-10.2,17.5v298.2
				c0,15.3-16.4,25-29.8,17.6l-31.2-17.1c-6.4-3.5-10.3-10.2-10.4-17.4l-1.9-181.4l-0.7-69.5l-0.8-72.6c-0.1-7.3,3.8-14,10.1-17.6
				l14.2-8.2l0.3-0.2l50.1-28.5l56.2-32l81.5-46.5l20.7-11.7l38.4-21.9l26.5-15.1c6.1-3.5,13.5-3.5,19.6-0.1l18.5,10.2
				L-2142.9,1117.1z"/>
			<path class="st0" d="M-2031.5,1178.4c8.5,4.7,8.6,16.7,0.3,21.7l-64.9,38.4l-0.1,0c-1.1,0.4-2.1,0.9-3.1,1.4l-18,10.4l-70.3,40.6
				l-64.6,37.3l-49,28.2c-6.2,3.6-10.1,10.3-10.1,17.4v306.6c0,15.3-16.4,25-29.8,17.6l-41.3-22.7c-6.4-3.5-10.4-10.3-10.4-17.6
				v-314.5c0-7.2,3.8-13.8,10.1-17.4l71.4-41.3l59-34.1l33.8-19.5l30.8-17.8l0.1-0.1c1.2-0.7,2.3-1.5,3.3-2.4l101.9-60.2l1.6,0.9
				L-2031.5,1178.4z"/>
			<path class="st0" d="M-1904.8,1578.6c0.1,7.3-3.8,14-10.1,17.6l-67.4,38.9l-134.9,77.9l-70.3,40.6l-13.3,7.7
				c-6.1,3.5-13.6,3.6-19.8,0.2l-10.2-5.6c-13.2-7.3-21.4-21.1-21.4-36.1v-305.3c0-7.2,3.8-13.8,10.1-17.4l54.6-31.5l70.3-40.6
				l16.9-9.8l0.1-0.1l48.1-27.8c1-0.6,1.9-1.2,2.8-1.9c0.8-0.7,1.7-1.4,2.7-1.9l68.9-40.7l7.1-4.2c1.7-1.2,6.4-4.4,13-6.2
				c2-0.3,4.1-0.5,6.3-0.5c20.2,0,36.5,15.7,36.5,35.1c0,10.9-5.2,20.7-13.3,27.1c0,0-0.1,0-0.1,0.1l-9.1,5.3l-16,9.3l-28.9,16.7
				l-134.9,77.9l-60.2,34.7c-6.2,3.6-10.1,10.3-10.1,17.4v182.8c0,15.5,16.8,25.2,30.2,17.4l40.1-23.1l124.8-72.1
				c6.2-3.6,10.1-10.3,10.1-17.4v-16l76.5-45.1l0.3,28.4L-1904.8,1578.6z"/>
		</g>
	</g>
	<g>
		<path class="st1" d="M847.2,508.5l0.4,44.6l0.2,20.1L768,620.3c-5.7-8-17-11.4-26.6-5.8l-74.5,43c-13.4,7.8-30.2-1.9-30.2-17.4
			V607c0-7.2,3.8-13.8,10.1-17.4l124.8-72.1l45.4-26.2C830.4,483.6,847.1,493.1,847.2,508.5z"/>
		<g>
			<path class="st1" d="M611.1,235.1L455.7,327l-12.8,7.3l-81.5,46.4l-46,26.2c-6.3,3.6-10.2,10.3-10.2,17.5v298.2
				c0,15.3-16.4,25-29.8,17.6l-31.2-17.1c-6.4-3.5-10.3-10.2-10.4-17.4l-1.9-181.4l-0.7-69.5l-0.8-72.6c-0.1-7.3,3.8-14,10.1-17.6
				l14.2-8.2l0.3-0.2l50.1-28.5l56.2-32l81.5-46.5l20.7-11.7l38.4-21.9l26.5-15.1c6.1-3.5,13.5-3.5,19.6-0.1l18.5,10.2L611.1,235.1z
				"/>
			<path class="st1" d="M722.5,296.4c8.5,4.7,8.6,16.7,0.3,21.7l-64.9,38.4l-0.1,0c-1.1,0.4-2.1,0.9-3.1,1.4l-18,10.4l-70.3,40.6
				l-64.6,37.3l-49,28.2c-6.2,3.6-10.1,10.3-10.1,17.4v306.6c0,15.3-16.4,25-29.8,17.6l-41.3-22.7c-6.4-3.5-10.4-10.3-10.4-17.6
				V461.2c0-7.2,3.8-13.8,10.1-17.4l71.4-41.3l59-34.1l33.8-19.5l30.8-17.8l0.1-0.1c1.2-0.7,2.3-1.5,3.3-2.4l101.9-60.2l1.6,0.9
				L722.5,296.4z"/>
			<path class="st1" d="M849.2,696.6c0.1,7.3-3.8,14-10.1,17.6l-67.4,38.9l-134.9,77.9l-70.3,40.6l-13.3,7.7
				c-6.1,3.5-13.6,3.6-19.8,0.2l-10.2-5.6c-13.2-7.3-21.4-21.1-21.4-36.1V532.5c0-7.2,3.8-13.8,10.1-17.4l54.6-31.5l70.3-40.6
				l16.9-9.8l0.1-0.1l48.1-27.8c1-0.6,1.9-1.2,2.8-1.9c0.8-0.7,1.7-1.4,2.7-1.9l68.9-40.7l7.1-4.2c1.7-1.2,6.4-4.4,13-6.2
				c2-0.3,4.1-0.5,6.3-0.5c20.2,0,36.5,15.7,36.5,35.1c0,10.9-5.2,20.7-13.3,27.1c0,0-0.1,0-0.1,0.1l-9.1,5.3l-16,9.3l-28.9,16.7
				l-134.9,77.9l-60.2,34.7c-6.2,3.6-10.1,10.3-10.1,17.4v182.8c0,15.5,16.8,25.2,30.2,17.4l40.1-23.1l124.8-72.1
				c6.2-3.6,10.1-10.3,10.1-17.4v-16l76.5-45.1l0.3,28.4L849.2,696.6z"/>
		</g>
	</g>
	<g>
		<path class="st2" d="M-680.8,1860.5l0.4,44.6l0.2,20.1l-79.9,47.1c-5.7-8-17-11.4-26.6-5.8l-74.5,43c-13.4,7.8-30.2-1.9-30.2-17.4
			V1959c0-7.2,3.8-13.8,10.1-17.4l124.8-72.1l45.4-26.2C-697.6,1835.6-680.9,1845.1-680.8,1860.5z"/>
		<g>
			<path class="st2" d="M-916.9,1587.1l-155.4,91.9l-12.8,7.3l-81.5,46.4l-46,26.2c-6.3,3.6-10.2,10.3-10.2,17.5v298.2
				c0,15.3-16.4,25-29.8,17.6l-31.2-17.1c-6.4-3.5-10.3-10.2-10.4-17.4l-1.9-181.4l-0.7-69.5l-0.8-72.6c-0.1-7.3,3.8-14,10.1-17.6
				l14.2-8.2l0.3-0.2l50.1-28.5l56.2-32l81.5-46.5l20.7-11.7l38.4-21.9l26.5-15.1c6.1-3.5,13.5-3.5,19.6-0.1l18.5,10.2
				L-916.9,1587.1z"/>
			<path class="st2" d="M-805.5,1648.4c8.5,4.7,8.6,16.7,0.3,21.7l-64.9,38.4l-0.1,0c-1.1,0.4-2.1,0.9-3.1,1.4l-18,10.4l-70.3,40.6
				l-64.6,37.3l-49,28.2c-6.2,3.6-10.1,10.3-10.1,17.4v306.6c0,15.3-16.4,25-29.8,17.6l-41.3-22.7c-6.4-3.5-10.4-10.3-10.4-17.6
				v-314.5c0-7.2,3.8-13.8,10.1-17.4l71.4-41.3l59-34.1l33.8-19.5l30.8-17.8l0.1-0.1c1.2-0.7,2.3-1.5,3.3-2.4l101.9-60.2l1.6,0.9
				L-805.5,1648.4z"/>
			<path class="st2" d="M-678.8,2048.6c0.1,7.3-3.8,14-10.1,17.6l-67.4,38.9l-134.9,77.9l-70.3,40.6l-13.3,7.7
				c-6.1,3.5-13.6,3.6-19.8,0.2l-10.2-5.6c-13.2-7.3-21.4-21.1-21.4-36.1v-305.3c0-7.2,3.8-13.8,10.1-17.4l54.6-31.5l70.3-40.6
				l16.9-9.8l0.1-0.1l48.1-27.8c1-0.6,1.9-1.2,2.8-1.9c0.8-0.7,1.7-1.4,2.7-1.9l68.9-40.7l7.1-4.2c1.7-1.2,6.4-4.4,13-6.2
				c2-0.3,4.1-0.5,6.3-0.5c20.2,0,36.5,15.7,36.5,35.1c0,10.9-5.2,20.7-13.3,27.1c0,0-0.1,0-0.1,0.1l-9.1,5.3l-16,9.3l-28.9,16.7
				l-134.9,77.9l-60.2,34.7c-6.2,3.6-10.1,10.3-10.1,17.4v182.8c0,15.5,16.8,25.2,30.2,17.4l40.1-23.1l124.8-72.1
				c6.2-3.6,10.1-10.3,10.1-17.4v-16l76.5-45.1l0.3,28.4L-678.8,2048.6z"/>
		</g>
	</g>
	<g>
		<path class="st3" d="M2885.2,850.5l0.4,44.6l0.2,20.1l-79.9,47.1c-5.7-8-17-11.4-26.6-5.8l-74.5,43c-13.4,7.8-30.2-1.9-30.2-17.4
			V949c0-7.2,3.8-13.8,10.1-17.4l124.8-72.1l45.4-26.2C2868.4,825.6,2885.1,835.1,2885.2,850.5z"/>
		<g>
			<path class="st3" d="M2649.1,577.1L2493.7,669l-12.8,7.3l-81.5,46.4l-46,26.2c-6.3,3.6-10.2,10.3-10.2,17.5v298.2
				c0,15.3-16.4,25-29.8,17.6l-31.2-17.1c-6.4-3.5-10.3-10.2-10.4-17.4l-1.9-181.4l-0.7-69.5l-0.8-72.6c-0.1-7.3,3.8-14,10.1-17.6
				l14.2-8.2l0.3-0.2l50.1-28.5l56.2-32l81.5-46.5l20.7-11.7l38.4-21.9l26.5-15.1c6.1-3.5,13.5-3.5,19.6-0.1l18.5,10.2L2649.1,577.1
				z"/>
			<path class="st3" d="M2760.5,638.4c8.5,4.7,8.6,16.7,0.3,21.7l-64.9,38.4l-0.1,0c-1.1,0.4-2.1,0.9-3.1,1.4l-18,10.4l-70.3,40.6
				l-64.6,37.3l-49,28.2c-6.2,3.6-10.1,10.3-10.1,17.4v306.6c0,15.3-16.4,25-29.8,17.6l-41.3-22.7c-6.4-3.5-10.4-10.3-10.4-17.6
				V803.2c0-7.2,3.8-13.8,10.1-17.4l71.4-41.3l59-34.1l33.8-19.5l30.8-17.8l0.1-0.1c1.2-0.7,2.3-1.5,3.3-2.4l101.9-60.2l1.6,0.9
				L2760.5,638.4z"/>
			<path class="st3" d="M2887.2,1038.6c0.1,7.3-3.8,14-10.1,17.6l-67.4,38.9l-134.9,77.9l-70.3,40.6l-13.3,7.7
				c-6.1,3.5-13.6,3.6-19.8,0.2l-10.2-5.6c-13.2-7.3-21.4-21.1-21.4-36.1V874.5c0-7.2,3.8-13.8,10.1-17.4l54.6-31.5l70.3-40.6
				l16.9-9.8l0.1-0.1l48.1-27.8c1-0.6,1.9-1.2,2.8-1.9c0.8-0.7,1.7-1.4,2.7-1.9l68.9-40.7l7.1-4.2c1.7-1.2,6.4-4.4,13-6.2
				c2-0.3,4.1-0.5,6.3-0.5c20.2,0,36.5,15.7,36.5,35.1c0,10.9-5.2,20.7-13.3,27.1c0,0-0.1,0-0.1,0.1l-9.1,5.3l-16,9.3l-28.9,16.7
				l-134.9,77.9l-60.2,34.7c-6.2,3.6-10.1,10.3-10.1,17.4v182.8c0,15.5,16.8,25.2,30.2,17.4l40.1-23.1l124.8-72.1
				c6.2-3.6,10.1-10.3,10.1-17.4v-16l76.5-45.1l0.3,28.4L2887.2,1038.6z"/>
		</g>
	</g>
</g>
<g id="Camada_4">
	<rect x="3979" y="959.3" style="fill:none;" width="2.6" height="0"/>
	<rect x="3912" y="1183.9" style="fill:none;" width="2.3" height="0"/>
	<rect x="3979" y="2123.8" style="fill:none;" width="2.6" height="0"/>
	<rect x="3912" y="2348.4" style="fill:none;" width="2.3" height="0"/>
</g>
</svg>
