<?xml version="1.0" encoding="UTF-8" standalone="no"?>
<svg
   xmlns:dc="http://purl.org/dc/elements/1.1/"
   xmlns:cc="http://creativecommons.org/ns#"
   xmlns:rdf="http://www.w3.org/1999/02/22-rdf-syntax-ns#"
   xmlns:svg="http://www.w3.org/2000/svg"
   xmlns="http://www.w3.org/2000/svg"
   style="fill:#ffffff"
   id="svg25"
   version="1.1"
   viewBox="0 0 261.26901 56"
   height="56"
   width="261.26901">
  <metadata
     id="metadata29">
    <rdf:RDF>
      <cc:Work
         rdf:about="">
        <dc:format>image/svg+xml</dc:format>
        <dc:type
           rdf:resource="http://purl.org/dc/dcmitype/StillImage" />
        <dc:title></dc:title>
      </cc:Work>
    </rdf:RDF>
  </metadata>
  <g
     style="fill:#009edb;fill-opacity:1"
     id="g18"
     clip-path="url(#clip0)">
    <path
       style="fill:#009edb;fill-opacity:1"
       id="path2"
       d="M 53.2244,36.3009 V 22.6588 c 0,0 0,-0.3404 -0.384,-0.3404 -0.3404,0 -0.3404,0.3404 -0.3404,0.3404 v 13.6421 c 0,0 0,0.3055 0.3753,0.3055 0.3841,0 0.3491,-0.3055 0.3491,-0.3055 z" />
    <path
       style="fill:#009edb;fill-opacity:1"
       id="path4"
       d="M 0,56 H 261.269 V 0 H 0 Z M 23.2344,36.606 c 0.3404,0 0.3404,-0.2706 0.3404,-0.2706 V 21.515 h 0.9514 v 14.7855 c 0,0 0.0785,1.1434 -1.222,1.1434 -1.3005,0 -1.2917,-1.1434 -1.2917,-1.1434 V 21.515 h 0.9513 v 14.7506 c 0,0 -0.0785,0.3404 0.2706,0.3404 z m 33.0013,3.1945 H 19.8828 V 38.2731 H 56.2357 Z M 28,37.4439 V 21.515 h 0.7594 l 0.9513,8.5099 V 21.515 h 0.803 v 15.9289 h -0.803 l -0.9513,-9.5748 v 9.5748 z m 8.1521,-8.9115 v 0.8728 h -1.0299 v 7.2008 h 1.3703 v 0.8379 H 34.0574 V 21.515 h 2.0947 v 0.803 h -1.0299 v 6.2144 z m 4.7045,8.0561 c 0.2444,0.0175 0.2444,-0.288 0.2444,-0.288 v -3.6746 c 0,-1.5449 -1.4838,-4.9139 -1.4838,-6.9127 v -3.0461 c 0,0 0,-1.1085 1.2569,-1.1434 1.2568,-0.0349 1.2219,1.1434 1.2219,1.1434 v 3.5785 h -0.9863 v -3.5785 c 0,0 0,-0.3404 -0.2705,-0.3404 -0.2706,0 -0.227,0.3404 -0.227,0.3404 v 3.5785 c 0,1.1783 1.4838,4.7394 1.4838,6.616 0,0.7768 0,3.4476 0,3.4476 0,0 0,1.1434 -1.2568,1.1434 -1.2569,0 -1.222,-1.1434 -1.222,-1.1434 v -3.9975 h 0.995 v 3.9975 c 0,-0.0087 0,0.2619 0.2444,0.2793 z M 46.818,22.318 c -0.3404,0 -0.3404,0.3404 -0.3404,0.3404 v 13.6421 c 0,0 0.0611,0.3055 0.3404,0.3055 0.3054,0 0.3054,-0.3055 0.3054,-0.3055 V 32.303 h 0.9514 v 3.9975 c 0,0 0,1.1434 -1.2568,1.1434 -1.2569,0 -1.222,-1.1434 -1.222,-1.1434 V 22.6584 c 0,0 0,-1.1434 1.222,-1.1434 1.2219,0 1.2568,1.1434 1.2568,1.1434 v 3.5785 h -0.9514 v -3.5785 c 0,0 0,-0.3404 -0.3054,-0.3404 z m 4.7306,13.9825 V 22.6584 c 0,0 0,-1.1434 1.3354,-1.1434 1.3355,0 1.2569,1.1434 1.2569,1.1434 v 13.6421 c 0,0 0,1.1434 -1.3354,1.1434 -1.2569,0 -1.2569,-1.1434 -1.2569,-1.1434 z M 19.8828,19.0623 h 36.3529 v 1.5275 H 19.8828 Z m 2.9327,-0.9775 15.2394,-4.6521 15.0124,4.6521 h -4.4164 l -10.596,-3.2382 -10.823,3.2382 z m -2.9327,-1.6409 18.1721,-5.6035 18.1808,5.6035 v 1.6409 L 37.9414,12.5599 19.8828,18.0848 Z M 17.8229,40.8653 H 58.217 V 42.384 H 17.8229 Z M 60.1983,44.985 H 15.9202 V 43.4576 H 60.1983 Z M 259.69,54.4202 H 76.1097 V 1.5798 H 259.69 Z" />
    <path
       style="fill:#009edb;fill-opacity:1"
       id="path6"
       d="m 218.048,33.935 c -1.161,1.1521 -2.697,1.7893 -4.338,1.7893 -3.387,0 -6.145,-2.7581 -6.145,-6.1447 0,-3.3865 2.749,-6.1446 6.145,-6.1446 1.623,0 3.151,0.6284 4.311,1.7718 l 0.158,0.1571 2.793,-5.9439 -0.105,-0.0785 c -2.112,-1.4925 -4.6,-2.2868 -7.192,-2.2868 -6.878,0 -12.464,5.5948 -12.464,12.4638 0,6.8778 5.595,12.4639 12.464,12.4639 2.583,0 5.062,-0.7856 7.174,-2.2781 l 0.105,-0.0785 -2.749,-5.8479 z" />
    <path
       style="fill:#009edb;fill-opacity:1"
       id="path8"
       d="m 235.747,35.7421 c -3.378,0 -6.127,-2.7494 -6.127,-6.1272 0,-3.3778 2.749,-6.1272 6.127,-6.1272 3.378,0 6.127,2.7494 6.127,6.1272 0,3.3778 -2.749,6.1272 -6.127,6.1272 z m -0.035,-18.6347 c -6.86,0 -12.446,5.5861 -12.446,12.4464 0,6.8604 5.586,12.4464 12.446,12.4464 6.86,0 12.446,-5.586 12.446,-12.4464 0,-6.8603 -5.577,-12.4464 -12.446,-12.4464 z" />
    <path
       style="fill:#009edb;fill-opacity:1"
       id="path10"
       d="m 99.5637,17.8496 v 12.8653 c 0,1.0474 0.1047,2.6709 1.3093,3.7706 0.524,0.4713 1.466,1.0998 3.142,1.0998 1.414,0 2.514,-0.4714 3.195,-1.0998 1.099,-1.0474 1.256,-2.6184 1.256,-3.7706 V 17.8496 h 7.533 v 13.5985 c 0,2.6708 -0.262,5.1758 -2.619,7.4801 -2.67,2.6184 -6.589,3.0374 -9.365,3.0374 -2.88,0 -6.7468,-0.419 -9.4177,-3.0374 -2.1471,-2.0948 -2.5661,-4.4427 -2.5661,-7.0088 V 17.8496 Z" />
    <path
       style="fill:#009edb;fill-opacity:1"
       id="path12"
       d="m 121.846,17.8491 h 7.532 v 2.7756 c 2.304,-2.9327 5.019,-3.404 7.218,-3.404 2.043,0 4.714,0.3666 6.695,2.3566 2.199,2.1995 2.356,4.9663 2.356,6.8516 v 14.7507 h -7.532 V 29.2045 c 0,-1.5187 -0.052,-3.4476 -1.257,-4.6521 -0.576,-0.5761 -1.519,-1.0474 -2.871,-1.0474 -1.571,0 -2.566,0.6284 -3.143,1.2569 -1.256,1.2568 -1.466,2.9326 -1.466,4.4426 v 11.9838 h -7.532 z" />
    <path
       style="fill:#009edb;fill-opacity:1"
       id="path14"
       d="m 168.454,26.324 c -0.053,-0.2095 -0.419,-1.6758 -1.519,-2.7232 -0.838,-0.7855 -2.042,-1.3092 -3.561,-1.3092 -1.938,0 -3.09,0.7855 -3.823,1.5187 -0.576,0.6284 -1.1,1.4663 -1.309,2.5137 z m 6.956,4.495 h -17.421 c 0,1.2569 0.471,2.9327 1.414,3.9801 1.152,1.2568 2.723,1.4663 3.866,1.4663 1.1,0 2.252,-0.2095 3.038,-0.6808 0.104,-0.0524 0.995,-0.6284 1.623,-1.9376 l 7.114,0.7331 c -1.048,3.2905 -3.143,5.0187 -4.495,5.8566 -2.252,1.3616 -4.766,1.7282 -7.376,1.7282 -3.5,0 -6.59,-0.6284 -9.313,-3.3516 -2.042,-2.0424 -3.508,-5.1235 -3.508,-8.9988 0,-3.3429 1.204,-6.7992 3.561,-9.2082 2.828,-2.8279 6.328,-3.3516 8.946,-3.3516 2.619,0 6.38,0.4713 9.261,3.5087 2.775,2.9327 3.299,6.5898 3.299,9.4701 v 0.7855 z" />
    <path
       style="fill:#009edb;fill-opacity:1"
       id="path16"
       d="m 194.403,23.8113 c -1.152,-0.6808 -2.671,-1.3092 -4.129,-1.3092 -0.785,0 -1.676,0.2095 -2.147,0.6808 -0.262,0.2619 -0.471,0.6808 -0.471,1.0474 0,0.5237 0.366,0.8379 0.733,1.0474 0.524,0.3142 1.309,0.4713 2.252,0.7855 l 1.99,0.6284 c 1.309,0.419 2.671,0.9427 3.866,2.0424 1.362,1.2569 1.833,2.6709 1.833,4.4514 0,3.0898 -1.361,5.0711 -2.409,6.1185 -2.304,2.3042 -5.132,2.6621 -7.584,2.6621 -3.143,0 -6.538,-0.6808 -9.575,-3.3429 l 3.194,-5.0711 c 0.733,0.6284 1.781,1.3616 2.566,1.7282 1.048,0.5237 2.147,0.7331 3.142,0.7331 0.472,0 1.676,0 2.357,-0.5237 0.471,-0.3665 0.786,-0.9426 0.786,-1.5187 0,-0.4189 -0.157,-0.9426 -0.838,-1.3616 -0.524,-0.3142 -1.205,-0.5236 -2.305,-0.8379 l -1.885,-0.576 c -1.361,-0.419 -2.775,-1.1521 -3.77,-2.1472 -1.1,-1.1521 -1.676,-2.4613 -1.676,-4.2419 0,-2.2518 0.89,-4.1284 2.252,-5.3852 2.094,-1.9377 4.914,-2.3566 7.061,-2.3566 3.447,0 5.856,0.8902 7.742,1.99 z" />
  </g>
  <defs
     id="defs23">
    <clipPath
       id="clip0">
      <rect
         style="fill:#ffffff"
         y="0"
         x="0"
         id="rect20"
         height="56"
         width="261.26901" />
    </clipPath>
  </defs>
</svg>
