<?xml version="1.0" encoding="UTF-8"?>
<svg width="258.83mm" height="129.42mm" version="1.1" viewBox="0 0 258.83 129.42" xmlns="http://www.w3.org/2000/svg" xmlns:xlink="http://www.w3.org/1999/xlink">
  <rect y="-5.4932e-6" width="258.82" height="129.41" fill="#fff" style="paint-order:markers fill stroke"/>
  <path d="m195.09 65.684v7.1177h-1.9411v-7.1177h-63.736v63.734h129.41v-63.734z" fill-rule="evenodd" stroke-width="1.2256"/>
  <g transform="rotate(180,-164.05,-11.537)">
    <use transform="translate(-457.5,-152.49)" width="100%" height="100%" xlink:href="#g"/>
    <use transform="translate(-457.5,-152.49)" width="100%" height="100%" xlink:href="#h"/>
  </g>
  <path id="g" d="m64.705 64.708-7.8776 8.5549 7.019 32.612-9.8262-30.773-33.461-10.39h-4.383v0.97098h-16.176v63.732l63.732 4e-3v-16.178h0.97151zm-34.133 6.3071 1.5994 0.49765c2.6749 12.894 12.801 23.056 25.669 25.765l0.51469 1.6071c-14.093-2.6105-25.198-13.748-27.784-27.868z" fill="#0b89c6" stroke-width="1.2256"/>
  <path id="h" d="m0.014722 0.0072544v63.735h16.177v0.96842h48.529l-8.5409-7.8869-32.562 7.0299 30.731-9.8411 10.373-33.509v-4.3201h-0.97151v-16.177zm58.411 30.519-0.49659 1.6009c-12.881 2.6765-23.03 12.82-25.735 25.707l-1.6025 0.51315c2.609-14.114 13.729-25.236 27.834-27.821z" fill="#004489" stroke-width="1.2256"/>
  <path d="m129.42 0.01v63.73h63.736v-7.1116h1.9411v7.1116h63.736v-63.73z" fill-rule="evenodd" stroke-width="1.2256"/>
  <path id="i" d="m216.23 26.19c-0.60054 0-0.73842-0.4688-1.0479-1.8231-0.62812-2.7392-1.5825-2.7392-5.1306-2.7378l-3.1927 0.011c0.0245 1.4416 0.0153 4.0031 5e-3 6.7163-0.0214 5.8247-0.049 13.036 0.21295 14.185 0.10417 0.45501 1.1352 0.82269 1.6592 0.91921l0.98201 0.12562c1.0172 0.12097 1.4799 0.17465 1.7602 0.60514 0.239 0.36768 0.18691 0.75068-0.13175 0.99734-0.18997 0.14707-0.56684 0.14707-2.5968 0.0766-1.0862-0.0368-2.4375-0.0843-3.9924-0.0934-1.9303 0-3.1851 0.0597-4.1027 0.10417-1.0525 0.0521-1.6117 0.0797-2.1448-0.0306-0.20222-0.0811-0.33091-0.23439-0.37993-0.43662-0.0568-0.23286 2e-3 -0.48105 0.16545-0.68327 0.28189-0.3447 0.54999-0.37381 1.2638-0.45041 0.32785-0.0352 0.69707-0.0766 1.1659-0.14401 0.62506-0.1119 1.9211-0.60974 1.984-0.96823 0.13788-0.89162 0.18385-12.925 0.20529-18.709l9e-3 -2.2-4.8381 0.0153c-1.3512 0.0139-2.2169 0.50096-3.303 1.8568-0.24819 0.37381-0.94832 1.3222-1.4432 1.9395-0.28955 0.36002-0.7752 0.71698-1.1888 0.54386-0.1532-0.0643-0.40138-0.25124-0.34163-0.79357l1.6837-6.7071c0.0566-0.26197 0.26963-0.70778 0.71698-0.70778 0.50249 0 0.58982 0.16239 0.96056 0.85332l0.15933 0.29875c0.31253 0.50556 0.55765 0.90388 2.7255 0.85945l16.397 0.069c0.075 0 0.22214-0.0414 0.24818-0.12409 0.63885-1.2808 1.0203-1.9977 1.509-1.9977 0.35695 1e-3 0.78438 0.19609 0.78438 1.1138l-5e-3 6.6305c-0.0382 0.42897-0.32019 0.68634-0.75834 0.68634" fill="#fff" fill-rule="evenodd" stroke-width="1.2256"/>
  <path id="j" d="m167.82 45.66c-0.18537 0.20682-0.21295 0.22061-0.24206 0.22214l-0.93759 0.0827c-3.6292-3.5634-11.689-12.38-16.504-17.649l-3.1697-3.4593c5e-3 3.2295 0.0261 15.824 0.12409 18.07 0.0843 0.40752 0.81043 0.53774 1.198 0.60821 0.50403 0.0719 0.87937 0.11337 1.1521 0.14401 0.766 0.0827 1.0341 0.1119 1.316 0.45654 0.3064 0.37993 0.22061 0.76753 0.011 0.96669-0.20988 0.19763-0.68327 0.1915-2.2934 0.13482-0.67255-0.0245-1.6899-0.0613-2.6978-0.0537-0.89316 6e-3 -1.7786 0.0368-2.4894 0.0613-1.6239 0.0566-1.9257 0.0566-2.0896-0.0537-0.12869-0.0858-0.21755-0.22673-0.24359-0.39066-0.0215-0.14554-5e-3 -0.37074 0.20222-0.62505 0.27883-0.34317 0.54387-0.37228 1.2624-0.45041 0.32173-0.0353 0.69707-0.0766 1.1659-0.14401 0.56224-0.10259 1.2164-0.43356 1.2486-0.63272 0.18538-1.1122 0.12563-14.118 0.0873-19.031-0.0505-1.3038-0.13022-1.6867-0.20989-1.9073-0.40598-1.1398-2.2504-1.2638-3.038-1.3161-0.19303-0.0139-0.30793-0.0215-0.3876-0.0398l-0.24972-1.1812 5.627-0.33858c0.47799 0.26198 1.4048 0.95138 2.2566 1.8476l16.766 18.459c-0.13635-4.5286-0.57757-14.775-0.71238-17.864-0.0858-0.49024-0.83648-0.62659-1.195-0.69094-0.56225-0.0811-0.9667-0.12562-1.2072-0.15166-0.71698-0.0766-0.98508-0.10577-1.267-0.45195-0.3064-0.3784-0.22061-0.766-0.011-0.96516 0.21141-0.19916 0.6848-0.1915 2.3041-0.13328 0.76447 0.0261 1.7173 0.0598 2.6855 0.0521 0.89776-7e-3 1.7832-0.0382 2.4941-0.0613 1.6209-0.0566 1.9227-0.0582 2.0897 0.0551 0.12869 0.0874 0.21601 0.2298 0.24052 0.39219 0.0215 0.14248 2e-3 0.36615-0.20069 0.62046-0.28189 0.34623-0.54999 0.37534-1.267 0.45194-0.311 0.0337-0.68327 0.075-1.1643 0.14248-0.69094 0.12562-1.2501 0.455-1.244 0.5699 6e-3 0.11803 0.57297 19.129 0.56225 20.768l0.0566 3.4072-0.0292 0.0782z" fill="#fff" fill-rule="evenodd" stroke-width="1.2256"/>
  <path id="k" d="m179.25 31.77c0.96057 0.0597 3.6155 0.19609 6.4023 0.0811l-3.2172-8.59-3.1851 8.5088zm17.533 12.915c-0.0306 0.23286-0.18078 0.40751-0.311 0.4933-0.36002 0.14861-0.97589 0.13022-2.2291 0.0797-0.69399-0.0292-1.6423-0.0689-2.6228-0.0598-0.85026 7e-3 -1.6286 0.0322-2.4191 0.0582-1.6715 0.0537-2.1632 0.0628-2.3899-0.0919-0.22214-0.17311-0.37381-0.5653-0.21754-0.94984 0.17158-0.41211 0.48411-0.44734 1.1674-0.52394 0.2972-0.0322 0.65263-0.0735 1.1107-0.14248 0.23286-0.046 0.78132-0.15473 0.90082-0.35083-0.0445-0.31099-1.005-2.9629-2.3654-6.632l-1.0188-2.7362c-4.1854-0.2252-7.0119-0.11177-7.8821-0.0643l-1.1138 2.9905-0.35543 0.95597-1.8537 4.9943c-0.069 0.20682-0.0705 0.36921-5e-3 0.48105 0.13328 0.22827 0.53773 0.3064 0.77825 0.35389 0.40752 0.0613 0.71392 0.0889 0.96823 0.11178 0.70778 0.0659 1.0969 0.1027 1.3651 0.74608 0.0735 0.19763 0.0597 0.3922-0.0368 0.54846-0.095 0.1532-0.26198 0.24818-0.4688 0.2681-0.89315 0.0858-1.7495 0.0566-2.7392 0.0229-0.62199-0.0214-1.4401-0.049-2.347-0.0398-0.86098 0.01-1.6117 0.0322-2.2153 0.0505-1.3712 0.0414-1.627 0.0414-1.7847-0.0551-0.16699-0.10271-0.35083-0.30334-0.36921-0.56531-0.0123-0.1532 0.0292-0.37994 0.28648-0.59442 0.36002-0.29414 0.63732-0.31865 1.3114-0.37993 0.33091-0.0306 0.7614-0.0705 1.3528-0.14861 0.45807-0.0627 1.4615-0.49943 1.725-1.0264 0.21141-0.4213 2.4052-6.2536 4.5286-11.894l0.0904-0.24205c1.9166-5.0909 4.0888-10.864 4.6665-12.283l1.3328-0.19303c0.26044 0.25738 2.7882 6.8481 6.344 16.136 1.7189 4.4872 3.2035 8.3662 3.3857 8.7922 0.29108 0.48871 1.123 0.62965 1.5688 0.70625 1.1582 0.18691 1.359 0.25891 1.6546 0.58983 0.20529 0.2298 0.22521 0.4504 0.20682 0.59441" fill="#fff" fill-rule="evenodd" stroke-width="1.2256"/>
  <path id="l" d="m231.15 20.15c-2.73 0-4.9836 0.86864-6.6979 2.583-2.5156 2.5156-3.4118 6.4084-3.4118 9.2119 0 2.75 0.96056 6.92 3.666 9.6256 1.6837 1.6837 3.7687 2.537 6.2001 2.537 3.519 0 6.1878-1.1459 7.9327-3.4057 1.5796-2.0468 2.3807-4.9514 2.3807-8.6329 0-3.974-1.0693-7.0595-3.1804-9.1706-2.3914-2.3914-5.3436-2.7484-6.8894-2.7484m12.085 19.781c-0.15779 0.24359-3.9572 5.9442-12.124 5.9442-4.1962 0-7.7718-1.3574-10.339-3.925-2.514-2.5125-3.954-6.0943-3.954-9.8279 0-3.5773 1.29-6.8955 3.6324-9.3467 2.6779-2.8005 6.5616-4.2804 11.233-4.2804 3.9511 0 7.5666 1.4416 10.185 4.0582 2.4726 2.4726 3.8347 5.7956 3.8347 9.356 0 2.1785-0.1915 4.593-2.4665 8.0216" fill="#fff" fill-rule="evenodd" stroke-width="1.2256"/>
  <use transform="translate(-23.328,64.813)" width="100%" height="100%" xlink:href="#i"/>
  <use transform="translate(75.965,64.816)" width="100%" height="100%" xlink:href="#j"/>
  <use transform="translate(20.112,64.811)" width="100%" height="100%" xlink:href="#k"/>
  <use transform="translate(-75.927,64.813)" width="100%" height="100%" xlink:href="#l"/>
</svg>
